<svg xmlns="http://www.w3.org/2000/svg" viewBox="0 0 103 59.5" fill="#0076DF"><path d="M15.3 21.7C7.1 24 1 31.5 1 40.5c0 10.7 8.7 19.4 19.4 19.4V48.7c-4.5 0-8.3-3.7-8.3-8.3 0-4.6 3.7-8.3 8.3-8.3 4.6 0 8.3 3.7 8.3 8.3v19.4h11.2V40.5c0-8.5-5.5-15.7-13.1-18.4 1.9-6.2 7.7-10.6 14.5-10.6 8.4 0 15.2 6.8 15.2 15.2v33.2h11.2V40.5c0-4.6 3.7-8.3 8.3-8.3 4.5 0 8.3 3.7 8.3 8.3v19.4c6.2 0 11.1-5 11.1-11.1v-8.3c0-10.7-8.7-19.4-19.4-19.4-3.1 0-5.9.7-8.5 2C65.5 10.2 54.4.3 41.2.3 28.3.3 17.6 9.6 15.3 21.7"/></svg>